<svg xmlns="http://www.w3.org/2000/svg" width="640" height="640" viewBox="0 0 640 640">
  <rect width="640" height="640" fill="#030712" />
  <g fill="#9ca3af" fill-opacity="0.55">
    <circle cx="48" cy="62" r="1.1" />
    <circle cx="120" cy="28" r="0.9" />
    <circle cx="212" cy="84" r="1.6" />
    <circle cx="318" cy="46" r="1.2" />
    <circle cx="430" cy="36" r="1" />
    <circle cx="588" cy="72" r="1.4" />
    <circle cx="536" cy="18" r="0.9" />
    <circle cx="80" cy="178" r="1.3" />
    <circle cx="158" cy="146" r="0.8" />
    <circle cx="264" cy="162" r="1.5" />
    <circle cx="344" cy="190" r="1.1" />
    <circle cx="424" cy="158" r="1.2" />
    <circle cx="520" cy="204" r="1.3" />
    <circle cx="612" cy="168" r="1.1" />
    <circle cx="46" cy="288" r="1.1" />
    <circle cx="130" cy="260" r="1.6" />
    <circle cx="210" cy="236" r="1.2" />
    <circle cx="308" cy="272" r="1.4" />
    <circle cx="404" cy="256" r="1.1" />
    <circle cx="492" cy="284" r="1.5" />
    <circle cx="598" cy="246" r="0.9" />
    <circle cx="94" cy="336" r="0.9" />
    <circle cx="172" cy="382" r="1.3" />
    <circle cx="248" cy="320" r="0.8" />
    <circle cx="332" cy="356" r="1.4" />
    <circle cx="440" cy="322" r="1.1" />
    <circle cx="528" cy="344" r="1.5" />
    <circle cx="602" cy="336" r="1.2" />
    <circle cx="38" cy="418" r="1.4" />
    <circle cx="134" cy="450" r="1.1" />
    <circle cx="220" cy="410" r="1.5" />
    <circle cx="312" cy="468" r="1.1" />
    <circle cx="398" cy="430" r="0.9" />
    <circle cx="474" cy="458" r="1.3" />
    <circle cx="562" cy="428" r="1.1" />
    <circle cx="88" cy="520" r="1.2" />
    <circle cx="164" cy="564" r="1" />
    <circle cx="240" cy="506" r="1.4" />
    <circle cx="322" cy="540" r="0.9" />
    <circle cx="418" cy="512" r="1.2" />
    <circle cx="506" cy="552" r="1.1" />
    <circle cx="590" cy="528" r="1.3" />
    <circle cx="46" cy="598" r="0.9" />
    <circle cx="140" cy="612" r="1.4" />
    <circle cx="244" cy="620" r="1" />
    <circle cx="338" cy="604" r="1.5" />
    <circle cx="432" cy="624" r="1.1" />
    <circle cx="522" cy="604" r="1.3" />
    <circle cx="612" cy="612" r="0.9" />
  </g>
  <g fill="#f8fafc" fill-opacity="0.4">
    <circle cx="90" cy="40" r="0.8" />
    <circle cx="174" cy="60" r="0.9" />
    <circle cx="266" cy="40" r="0.8" />
    <circle cx="360" cy="72" r="0.9" />
    <circle cx="450" cy="92" r="0.8" />
    <circle cx="548" cy="60" r="0.8" />
    <circle cx="118" cy="118" r="0.7" />
    <circle cx="208" cy="138" r="0.8" />
    <circle cx="298" cy="118" r="0.9" />
    <circle cx="388" cy="140" r="0.8" />
    <circle cx="480" cy="132" r="0.7" />
    <circle cx="560" cy="120" r="0.8" />
    <circle cx="150" cy="206" r="0.7" />
    <circle cx="242" cy="210" r="0.8" />
    <circle cx="334" cy="226" r="0.7" />
    <circle cx="424" cy="210" r="0.8" />
    <circle cx="514" cy="226" r="0.7" />
    <circle cx="200" cy="298" r="0.8" />
    <circle cx="292" cy="288" r="0.7" />
    <circle cx="380" cy="310" r="0.8" />
    <circle cx="470" cy="300" r="0.7" />
    <circle cx="560" cy="314" r="0.8" />
    <circle cx="242" cy="382" r="0.8" />
    <circle cx="332" cy="396" r="0.7" />
    <circle cx="420" cy="382" r="0.8" />
    <circle cx="510" cy="400" r="0.7" />
    <circle cx="280" cy="468" r="0.8" />
    <circle cx="372" cy="454" r="0.7" />
    <circle cx="462" cy="470" r="0.8" />
    <circle cx="552" cy="456" r="0.7" />
    <circle cx="308" cy="548" r="0.8" />
    <circle cx="400" cy="566" r="0.7" />
    <circle cx="490" cy="552" r="0.8" />
    <circle cx="580" cy="570" r="0.7" />
  </g>
</svg>
